<svg width="48" height="49" viewBox="0 0 48 49" fill="none" xmlns="http://www.w3.org/2000/svg">
<path d="M22 1.6547C23.2376 0.940172 24.7624 0.940172 26 1.6547L42.7846 11.3453C44.0222 12.0598 44.7846 13.3803 44.7846 14.8094V34.1906C44.7846 35.6197 44.0222 36.9402 42.7846 37.6547L26 47.3453C24.7624 48.0598 23.2376 48.0598 22 47.3453L5.21539 37.6547C3.97779 36.9402 3.21539 35.6197 3.21539 34.1906V14.8094C3.21539 13.3803 3.97779 12.0598 5.21539 11.3453L22 1.6547Z" fill="url(#paint0_linear_6003_25)"/>
<path d="M22.5 6.52073C23.4282 5.98483 24.5718 5.98483 25.5 6.52073L38.8205 14.2113C39.7487 14.7472 40.3205 15.7376 40.3205 16.8094V32.1906C40.3205 33.2624 39.7487 34.2528 38.8205 34.7887L25.5 42.4793C24.5718 43.0152 23.4282 43.0152 22.5 42.4793L9.1795 34.7887C8.2513 34.2528 7.6795 33.2624 7.6795 32.1906V16.8094C7.6795 15.7376 8.2513 14.7472 9.1795 14.2113L22.5 6.52073Z" stroke="url(#paint1_linear_6003_25)" stroke-width="2"/>
<path d="M33.6 30.5H14.4C14.1791 30.5 14 30.6791 14 30.9V32.1C14 32.3209 14.1791 32.5 14.4 32.5H33.6C33.8209 32.5 34 32.3209 34 32.1V30.9C34 30.6791 33.8209 30.5 33.6 30.5Z" fill="url(#paint2_linear_6003_25)"/>
<path d="M33.6 28.5H14.4C14.1791 28.5 14 28.3209 14 28.1V17.0466C14 16.6867 14.4381 16.5099 14.6879 16.769L19.612 21.8754C19.8023 22.0728 20.1303 22.0245 20.2556 21.7807L23.6443 15.1917C23.7931 14.9023 24.2069 14.9023 24.3557 15.1917L27.7444 21.7807C27.8697 22.0245 28.1977 22.0728 28.388 21.8754L33.3121 16.769C33.5619 16.5099 34 16.6867 34 17.0466V28.1C34 28.3209 33.8209 28.5 33.6 28.5Z" fill="url(#paint3_linear_6003_25)"/>
<defs>
<linearGradient id="paint0_linear_6003_25" x1="24" y1="0.500003" x2="24" y2="48.5" gradientUnits="userSpaceOnUse">
<stop stop-color="#CF1C51"/>
<stop offset="1" stop-color="#AF1947"/>
</linearGradient>
<linearGradient id="paint1_linear_6003_25" x1="24" y1="4.5" x2="24" y2="44.5" gradientUnits="userSpaceOnUse">
<stop stop-color="#FEE3A2"/>
<stop offset="1" stop-color="#F2A768"/>
</linearGradient>
<linearGradient id="paint2_linear_6003_25" x1="24" y1="30.5" x2="24" y2="32.5" gradientUnits="userSpaceOnUse">
<stop stop-color="#FEE3A2"/>
<stop offset="1" stop-color="#F2A768"/>
</linearGradient>
<linearGradient id="paint3_linear_6003_25" x1="24" y1="14.5" x2="24" y2="28.5" gradientUnits="userSpaceOnUse">
<stop stop-color="#FEE3A2"/>
<stop offset="1" stop-color="#F2A768"/>
</linearGradient>
</defs>
</svg>
